<?xml version="1.0" ?>
<!-- Uploaded to: SVG Repo, www.svgrepo.com, Generator: SVG Repo Mixer Tools -->
<svg fill="#000000" width="800px" height="800px" viewBox="0 0 64 64" xmlns="http://www.w3.org/2000/svg">
<g data-name="19 costumer service" id="_19_costumer_service">
<path d="M37.71,34.54a13.428,13.428,0,0,0,5.51-4.86H46.7a2.915,2.915,0,0,0,2.74-3.06V19.43a3.124,3.124,0,0,0-.2-1.11V18.3a25.246,25.246,0,0,0-5.2-9.54l-.13-.15a15.275,15.275,0,0,0-5.72-3.97,17.135,17.135,0,0,0-14.11.8,15.539,15.539,0,0,0-3.99,3.17l-.13.15a25.246,25.246,0,0,0-5.2,9.54v.02a3.124,3.124,0,0,0-.2,1.11v7.19a2.915,2.915,0,0,0,2.74,3.06h3.48a13.428,13.428,0,0,0,5.51,4.86,20.226,20.226,0,0,0-15.02,19.5V59.5a1,1,0,0,0,1,1H51.73a1,1,0,0,0,1-1V54.04A20.226,20.226,0,0,0,37.71,34.54Zm9.73-15.11v7.19c0,.56-.35,1.06-.74,1.06H44.29c.17-.42.33-.85.46-1.29,0-.01,0-.01.01-.02a13.235,13.235,0,0,0-.1-8H46.7C47.09,18.37,47.44,18.87,47.44,19.43ZM17.3,27.68c-.39,0-.74-.5-.74-1.06V19.43c0-.56.35-1.06.74-1.06h2.04a13.261,13.261,0,0,0,.37,9.31Zm.26-11.31a22.694,22.694,0,0,1,3.89-6.28l.12-.13A13.124,13.124,0,0,1,25.05,7.2a15.268,15.268,0,0,1,12.41-.7,13.159,13.159,0,0,1,4.97,3.46l.12.13a22.694,22.694,0,0,1,3.89,6.28H43.82a13.311,13.311,0,0,0-23.64,0Zm3.11,6.14A11.33,11.33,0,1,1,43.05,25H39.71a2.991,2.991,0,0,0-2.82-2h-3a3,3,0,0,0,0,6h3a2.991,2.991,0,0,0,2.82-2H42.4a11.329,11.329,0,0,1-21.73-4.49Zm17.22,3.48v.02a.994.994,0,0,1-1,.99h-3a1,1,0,0,1,0-2h3A.994.994,0,0,1,37.89,25.99ZM50.73,58.5H13.27V54.04a18.228,18.228,0,0,1,18.2-18.2h1.06a18.228,18.228,0,0,1,18.2,18.2Z"/>
</g>
</svg>